<svg width="414" height="148" viewBox="0 0 414 148" fill="none" xmlns="http://www.w3.org/2000/svg">
<path fill-rule="evenodd" clip-rule="evenodd" d="M0 118.161L8 113.387C15 108.613 31 99.0645 46 96.6774C61 94.2903 77 99.0645 92 85.9355C107 74 123 44.1613 138 39.3871C153 34.6129 169 53.7097 184 71.6129C199 88.3226 215 103.839 230 108.613C245 113.387 261 108.613 276 96.6774C291 83.5484 307 64.4516 322 69.2258C337 74 353 103.839 368 120.548C383 138.452 399 143.226 406 145.613L414 148V0H406C399 0 383 0 368 0C353 0 337 0 322 0C307 0 291 0 276 0C261 0 245 0 230 0C215 0 199 0 184 0C169 0 153 0 138 0C123 0 107 0 92 0C77 0 61 0 46 0C31 0 15 0 8 0H0V118.161Z" fill="#2B579A"/>
</svg>
