<svg width="414" height="134" viewBox="0 0 414 134" fill="none" xmlns="http://www.w3.org/2000/svg">
<path fill-rule="evenodd" clip-rule="evenodd" d="M0 83.9271L6 81.2204C12 78.5138 23 73.1005 35 55.5073C46 39.2674 58 10.8476 69 2.72769C81 -5.39224 92 5.43434 104 24.3809C115 44.6807 127 73.1005 138 81.2204C150 89.3403 161 78.5138 173 73.1005C184 66.3339 196 66.3339 207 69.0405C219 73.1005 230 78.5138 242 69.0405C253 60.9206 265 39.2674 276 44.6807C288 50.094 299 83.9271 311 100.167C322 117.76 334 117.76 345 115.053C357 110.994 368 105.58 380 94.7536C391 83.9271 403 66.3339 408 58.2139L414 50.094V134H408C403 134 391 134 380 134C368 134 357 134 345 134C334 134 322 134 311 134C299 134 288 134 276 134C265 134 253 134 242 134C230 134 219 134 207 134C196 134 184 134 173 134C161 134 150 134 138 134C127 134 115 134 104 134C92 134 81 134 69 134C58 134 46 134 35 134C23 134 12 134 6 134H0V83.9271Z" fill="white"/>
</svg>
